<?xml version="1.0" standalone="no"?>
<!DOCTYPE svg PUBLIC "-//W3C//DTD SVG 20010904//EN"
 "http://www.w3.org/TR/2001/REC-SVG-20010904/DTD/svg10.dtd">
<svg version="1.0" xmlns="http://www.w3.org/2000/svg"
 width="980.000000pt" height="880.000000pt" viewBox="0 0 980.000000 880.000000"
 preserveAspectRatio="xMidYMid meet">

<g transform="translate(0.000000,880.000000) scale(0.100000,-0.100000)"
fill="#000000" stroke="none">
<path d="M7175 8789 c-392 -21 -749 -105 -1020 -239 -357 -176 -686 -461
-1165 -1010 -46 -52 -86 -96 -89 -97 -3 -1 -60 62 -126 139 -152 178 -511 540
-635 641 -396 322 -722 465 -1240 543 -144 21 -572 30 -726 14 -519 -52 -955
-223 -1320 -518 -658 -529 -973 -1482 -809 -2447 61 -360 198 -766 300 -891
46 -56 110 -82 164 -66 54 17 115 64 134 105 33 68 22 125 -66 362 -68 185
-109 335 -143 530 -35 202 -44 550 -20 759 48 410 180 764 384 1025 91 116
283 305 401 394 256 193 635 320 1066 357 237 20 451 9 695 -35 581 -104 922
-342 1561 -1085 275 -320 341 -365 454 -310 48 23 147 124 330 335 152 175
457 490 600 617 256 229 582 383 951 449 94 17 174 22 387 26 404 8 595 -15
857 -103 714 -241 1150 -774 1276 -1559 21 -135 30 -547 15 -702 -36 -360
-143 -697 -340 -1078 -217 -420 -418 -670 -1082 -1350 -1292 -1323 -3049
-3095 -3068 -3095 -6 0 -259 251 -562 557 -780 788 -1752 1757 -1832 1827 -58
51 -74 60 -116 64 -61 6 -120 -23 -161 -80 -34 -47 -54 -109 -44 -140 7 -22
114 -143 298 -338 489 -514 1854 -1900 2143 -2175 211 -201 240 -220 309 -207
19 3 135 110 380 349 515 504 2923 2943 3370 3414 428 450 792 1042 957 1555
240 748 201 1563 -107 2191 -330 674 -944 1113 -1734 1242 -112 19 -199 26
-407 35 -44 2 -143 0 -220 -5z" style="fill:#2E2D4D" />
<path d="M4876 6042 c-83 -45 -39 62 -476 -1157 -437 -1219 -547 -1512 -561
-1498 -4 4 -161 388 -347 853 -485 1206 -527 1300 -590 1327 -47 20 -128 21
-167 2 -21 -10 -44 -40 -78 -101 -65 -117 -263 -535 -438 -925 l-144 -323
-702 0 -701 0 -36 -41 c-75 -88 -87 -164 -37 -240 17 -24 41 -57 54 -72 l23
-28 790 3 c697 3 793 5 824 19 45 21 99 116 266 475 131 280 240 503 253 517
11 11 42 -62 366 -873 309 -772 453 -1120 518 -1250 37 -74 48 -88 87 -108 57
-29 145 -27 188 5 43 32 121 233 596 1543 241 667 375 1020 387 1020 8 0 41
-102 193 -590 109 -353 199 -616 230 -678 15 -29 35 -53 52 -61 16 -7 94 -17
174 -22 206 -12 1190 -11 1270 2 125 20 185 78 184 179 0 70 -26 125 -75 157
-47 31 -60 32 -765 41 -557 8 -532 5 -558 66 -14 35 -118 368 -281 900 -58
192 -140 450 -180 575 -80 244 -91 264 -167 295 -54 23 -96 19 -152 -12z" style="fill:#DB5461"/>
</g>
</svg>
